<svg width="19" height="15" viewBox="0 0 19 15" fill="none" xmlns="http://www.w3.org/2000/svg">
<path d="M13.6201 1.36914H5.65939C3.46109 1.36914 1.67902 2.67778 1.67902 4.29208V10.138C1.67902 11.7522 3.46109 13.0609 5.65939 13.0609H13.6201C15.8184 13.0609 17.6005 11.7522 17.6005 10.138V4.29208C17.6005 2.67778 15.8184 1.36914 13.6201 1.36914Z" stroke="#1C1C1C" stroke-width="2" stroke-linecap="round" stroke-linejoin="round"/>
<path d="M12.8242 6.84594C12.9224 7.33246 12.8092 7.82934 12.5008 8.26591C12.1923 8.70248 11.7042 9.05651 11.1059 9.27763C10.5077 9.49876 9.82968 9.57573 9.16842 9.49759C8.50715 9.41945 7.89627 9.19018 7.42267 8.8424C6.94907 8.49462 6.63686 8.04603 6.53045 7.56043C6.42404 7.07484 6.52886 6.57697 6.82998 6.13764C7.1311 5.69831 7.61321 5.33989 8.20771 5.11336C8.80222 4.88684 9.47886 4.80374 10.1414 4.87588C10.8172 4.94947 11.4429 5.18072 11.9259 5.53548C12.409 5.89023 12.7239 6.34967 12.8242 6.84594Z" stroke="#1C1C1C" stroke-width="2" stroke-linecap="round" stroke-linejoin="round"/>
<path d="M14.0183 4H14.0274" stroke="#1C1C1C" stroke-width="2" stroke-linecap="round" stroke-linejoin="round"/>
</svg>
