<svg width="18" height="15" viewBox="0 0 18 15" fill="none" xmlns="http://www.w3.org/2000/svg">
<path d="M16.8728 1.37584C16.182 1.82593 15.4171 2.17017 14.6076 2.39532C14.1731 1.9339 13.5957 1.60685 12.9535 1.45842C12.3112 1.30998 11.6351 1.34732 11.0165 1.56538C10.398 1.78344 9.86688 2.1717 9.49502 2.67765C9.12317 3.1836 8.92852 3.78283 8.93739 4.39429V5.06062C7.66963 5.09098 6.41341 4.83128 5.28062 4.30463C4.14783 3.77799 3.17363 3.00076 2.44479 2.04217C2.44479 2.04217 -0.440818 8.03909 6.05179 10.7044C4.56608 11.6359 2.79622 12.103 1.00198 12.037C7.49459 15.3687 15.43 12.037 15.43 4.3743C15.4293 4.1887 15.41 4.00356 15.3723 3.82125C16.1086 3.15059 16.6281 2.30384 16.8728 1.37584V1.37584Z" stroke="#1C1C1C" stroke-width="2" stroke-linecap="round" stroke-linejoin="round"/>
</svg>
